<?xml version="1.0" encoding="UTF-8"?>
<!DOCTYPE svg PUBLIC "-//W3C//DTD SVG 1.1//EN" "http://www.w3.org/Graphics/SVG/1.1/DTD/svg11.dtd">
<svg xmlns="http://www.w3.org/2000/svg" version="1.1" width="1439px" height="1435px" style="shape-rendering:geometricPrecision; text-rendering:geometricPrecision; image-rendering:optimizeQuality; fill-rule:evenodd; clip-rule:evenodd" xmlns:xlink="http://www.w3.org/1999/xlink">
<g><path style="opacity:1" fill="#000000" d="M -0.5,-0.5 C 479.167,-0.5 958.833,-0.5 1438.5,-0.5C 1438.5,477.833 1438.5,956.167 1438.5,1434.5C 958.833,1434.5 479.167,1434.5 -0.5,1434.5C -0.5,956.167 -0.5,477.833 -0.5,-0.5 Z"/></g>
<g><path style="opacity:1" fill="#fefefe" d="M 673.5,279.5 C 682.5,279.5 691.5,279.5 700.5,279.5C 700.5,337.833 700.5,396.167 700.5,454.5C 685.386,454.79 670.386,456.29 655.5,459C 640.711,462.553 626.044,466.22 611.5,470C 586.532,437.373 560.866,405.373 534.5,374C 523.831,372.338 519.664,376.838 522,387.5C 529.962,425.642 537.795,463.809 545.5,502C 545.167,503.167 544.833,504.333 544.5,505.5C 532.236,514.262 520.402,523.595 509,533.5C 467.833,492.333 426.667,451.167 385.5,410C 466.322,333.643 562.322,290.143 673.5,279.5 Z"/></g>
<g><path style="opacity:1" fill="#fefefe" d="M 719.5,279.5 C 841.381,282.97 946.381,326.304 1034.5,409.5C 993.514,450.986 952.347,492.32 911,533.5C 856.947,484.077 793.114,457.744 719.5,454.5C 719.5,396.167 719.5,337.833 719.5,279.5 Z"/></g>
<g><path style="opacity:1" fill="#fdfdfd" d="M 548.5,421.5 C 610.97,500.146 673.303,578.98 735.5,658C 690.659,650.501 653.159,663.668 623,697.5C 618.273,703.897 613.94,710.564 610,717.5C 589.176,618.882 568.676,520.215 548.5,421.5 Z"/></g>
<g><path style="opacity:1" fill="#fefefe" d="M 416.5,738.5 C 358.167,738.5 299.833,738.5 241.5,738.5C 241.5,734.167 241.5,729.833 241.5,725.5C 248.166,608.541 291.666,507.875 372,423.5C 413.347,464.68 454.514,506.014 495.5,547.5C 445.804,601.259 419.471,664.926 416.5,738.5 Z"/></g>
<g><path style="opacity:1" fill="#fefefe" d="M 1047.5,423.5 C 1110.19,487.515 1151.02,563.848 1170,652.5C 1175.96,680.859 1179.13,709.526 1179.5,738.5C 1120.83,738.5 1062.17,738.5 1003.5,738.5C 1001.66,675.152 981.498,618.485 943,568.5C 937.355,561.354 931.522,554.354 925.5,547.5C 965.82,506.68 1006.32,466.014 1047,425.5C 1047.46,424.906 1047.63,424.239 1047.5,423.5 Z"/></g>
<g><path style="opacity:1" fill="#fefefe" d="M 696.5,675.5 C 744.982,672.639 778.815,693.306 798,737.5C 809.933,781.366 798.1,817.2 762.5,845C 734.639,862.099 705.306,865.099 674.5,854C 633.846,833.876 615.012,801.043 618,755.5C 624.372,719.926 644.205,695.092 677.5,681C 683.911,678.985 690.244,677.152 696.5,675.5 Z"/></g>
<g><path style="opacity:1" fill="#515151" d="M 241.5,725.5 C 241.5,729.833 241.5,734.167 241.5,738.5C 299.833,738.5 358.167,738.5 416.5,738.5C 358.002,739.499 299.336,739.832 240.5,739.5C 240.181,734.637 240.514,729.97 241.5,725.5 Z"/></g>
<g><path style="opacity:1" fill="#606060" d="M 416.5,758.5 C 358.167,758.5 299.833,758.5 241.5,758.5C 241.5,762.5 241.5,766.5 241.5,770.5C 240.515,766.366 240.182,762.032 240.5,757.5C 299.336,757.168 358.002,757.501 416.5,758.5 Z"/></g>
<g><path style="opacity:1" fill="#666666" d="M 1004.5,758.5 C 1062.66,757.501 1121,757.168 1179.5,757.5C 1179.82,762.695 1179.49,767.695 1178.5,772.5C 1178.5,767.833 1178.5,763.167 1178.5,758.5C 1120.5,758.5 1062.5,758.5 1004.5,758.5 Z"/></g>
<g><path style="opacity:1" fill="#fefefe" d="M 416.5,758.5 C 420.499,840.149 451.833,909.149 510.5,965.5C 476.813,1004.69 443.313,1044.02 410,1083.5C 405.721,1088.4 401.221,1093.07 396.5,1097.5C 301.107,1009.7 249.441,900.696 241.5,770.5C 241.5,766.5 241.5,762.5 241.5,758.5C 299.833,758.5 358.167,758.5 416.5,758.5 Z"/></g>
<g><path style="opacity:1" fill="#fefefe" d="M 1004.5,758.5 C 1062.5,758.5 1120.5,758.5 1178.5,758.5C 1178.5,763.167 1178.5,767.833 1178.5,772.5C 1170.51,902.132 1118.84,1010.47 1023.5,1097.5C 985.155,1053.82 947.155,1009.82 909.5,965.5C 968.324,909.053 999.991,840.053 1004.5,758.5 Z"/></g>
</svg>
